<svg xmlns="http://www.w3.org/2000/svg" width="512" height="512" viewBox="0 0 24 24" fill="none" stroke="#2563eb" stroke-width="2" stroke-linecap="round" stroke-linejoin="round" class="lucide lucide-brain-circuit"><path d="M12 5a3 3 0 1 0-5.993.142"/><path d="M18 5a3 3 0 1 0-5.993.142"/><path d="M5.36 8.64A3 3 0 1 0 5.218 2.647"/><path d="M18.64 8.64A3 3 0 1 0 18.782 2.647"/><path d="M5.218 15.353a3 3 0 1 0 .142 6.007"/><path d="M18.782 15.353a3 3 0 1 0 .142 6.007"/><path d="M12 13a3 3 0 1 0-5.993.142"/><path d="M18 13a3 3 0 1 0-5.993.142"/><path d="M12 5V2.5"/><path d="M18 5V2.5"/><path d="M5.36 8.64H3.5"/><path d="M18.64 8.64H20.5"/><path d="M5.218 15.353H3.5"/><path d="M18.782 15.353H20.5"/><path d="M12 13v2.5"/><path d="M18 13v2.5"/><path d="M12 21.5V19"/><path d="M18 21.5V19"/><path d="M12 8.5V6"/><path d="M18 8.5V6"/><path d="m14 4-2.5 4-2.5-4"/><path d="m14 12-2.5 4-2.5-4"/><path d="m14 20-2.5-4-2.5 4"/></svg>